<svg width="16" height="16" viewBox="0 0 16 16" fill="none" xmlns="http://www.w3.org/2000/svg">
<path d="M3.03271 7.15581C3.03271 7.48442 2.90256 7.75826 2.64224 7.97734C2.38626 8.19263 1.99361 8.30028 1.46429 8.30028H0.592225V9.94901H0V6H1.46429C1.97625 6 2.36456 6.10765 2.62922 6.32295C2.89822 6.53824 3.03271 6.81586 3.03271 7.15581ZM1.46429 7.87535C1.79403 7.87535 2.037 7.81303 2.19319 7.68839C2.34938 7.56374 2.42747 7.38621 2.42747 7.15581C2.42747 6.66856 2.10641 6.42493 1.46429 6.42493H0.592225V7.87535H1.46429Z" fill="black"/>
<path d="M7.02276 8.27762C7.02276 8.37583 7.01625 8.4797 7.00324 8.58924H4.15275C4.17444 8.89518 4.29375 9.13503 4.51068 9.30878C4.73196 9.47875 4.99878 9.56374 5.31117 9.56374C5.56715 9.56374 5.77974 9.51275 5.94895 9.41077C6.12249 9.305 6.24397 9.16525 6.31339 8.9915H6.95117C6.85572 9.2899 6.66482 9.53352 6.37847 9.72238C6.09212 9.90746 5.73635 10 5.31117 10C4.97275 10 4.66905 9.9339 4.40005 9.8017C4.13539 9.6695 3.92714 9.48253 3.77528 9.24079C3.62343 8.99528 3.54751 8.71199 3.54751 8.39094C3.54751 8.06988 3.62126 7.78848 3.76878 7.54674C3.91629 7.305 4.12238 7.11992 4.38703 6.9915C4.65603 6.8593 4.96407 6.7932 5.31117 6.7932C5.64958 6.7932 5.94895 6.85741 6.20927 6.98584C6.46958 7.11426 6.66916 7.29178 6.808 7.51841C6.95117 7.74127 7.02276 7.99433 7.02276 8.27762ZM6.41101 8.16997C6.41101 7.97356 6.36112 7.80548 6.26133 7.66572C6.16154 7.52219 6.02487 7.41454 5.85133 7.34278C5.68212 7.26723 5.49339 7.22946 5.28513 7.22946C4.98577 7.22946 4.72979 7.31256 4.51719 7.47875C4.30894 7.64495 4.18963 7.87535 4.15925 8.16997H6.41101Z" fill="black"/>
<path d="M8.52687 7.26912V9.09915C8.52687 9.25024 8.56374 9.35788 8.6375 9.4221C8.71126 9.48253 8.83925 9.51275 9.02147 9.51275H9.45751V9.94901H8.92385C8.59412 9.94901 8.34681 9.88291 8.18194 9.75071C8.01707 9.61851 7.93464 9.40132 7.93464 9.09915V7.26912H7.47257V6.84419H7.93464V6.06232H8.52687V6.84419H9.45751V7.26912H8.52687Z" fill="black"/>
<path d="M10.7673 7.34844C10.8714 7.17092 11.0189 7.03305 11.2098 6.93484C11.4051 6.83664 11.6415 6.78754 11.9192 6.78754V7.32011H11.763C11.0992 7.32011 10.7673 7.63362 10.7673 8.26062V9.94901H10.1751V6.84419H10.7673V7.34844Z" fill="black"/>
<path d="M12.3816 8.38527C12.3816 8.06799 12.4553 7.79037 12.6028 7.55241C12.7504 7.31067 12.9521 7.1237 13.2081 6.9915C13.4684 6.8593 13.7569 6.7932 14.0736 6.7932C14.386 6.7932 14.6572 6.85175 14.8871 6.96884C15.1171 7.08593 15.2885 7.23324 15.4013 7.41077V6.84419H16V9.94901H15.4013V9.37111C15.2841 9.55241 15.1084 9.70349 14.8741 9.82436C14.6442 9.94145 14.3752 10 14.0671 10C13.7504 10 13.4641 9.93201 13.2081 9.79603C12.9521 9.66006 12.7504 9.46931 12.6028 9.2238C12.4553 8.97828 12.3816 8.69877 12.3816 8.38527ZM15.4013 8.39094C15.4013 8.15675 15.347 7.95279 15.2386 7.77904C15.1301 7.60529 14.9826 7.47309 14.796 7.38244C14.6138 7.28801 14.4121 7.24079 14.1908 7.24079C13.9695 7.24079 13.7678 7.28612 13.5855 7.37677C13.4033 7.46742 13.258 7.59962 13.1495 7.77337C13.041 7.94712 12.9868 8.15109 12.9868 8.38527C12.9868 8.62323 13.041 8.83097 13.1495 9.0085C13.258 9.18225 13.4033 9.31634 13.5855 9.41077C13.7678 9.50142 13.9695 9.54674 14.1908 9.54674C14.4121 9.54674 14.6138 9.50142 14.796 9.41077C14.9826 9.31634 15.1301 9.18225 15.2386 9.0085C15.347 8.83097 15.4013 8.62512 15.4013 8.39094Z" fill="black"/>
</svg>
